<?xml version="1.0" encoding="iso-8859-1"?>
<!-- Generator: Adobe Illustrator 19.0.0, SVG Export Plug-In . SVG Version: 6.00 Build 0)  -->
<svg version="1.1" id="Capa_1" xmlns="http://www.w3.org/2000/svg" xmlns:xlink="http://www.w3.org/1999/xlink" x="0px" y="0px"
	 viewBox="0 0 512.034 512.034" style="enable-background:new 0 0 512.034 512.034;" xml:space="preserve">
<g transform="translate(0 -1)">
	<path style="fill:#D1D4D1;" d="M482.311,405.249c-7.922,11.181-16.75,21.692-26.394,31.426
		c-8.197,8.418-16.989,16.236-26.307,23.393l4.286,20.437l-322.01-2.782l5.847-17.655C19.485,384.547-10.577,249.507,46.355,139.44
		S230.872-24.124,349.28,12.421c10.799,3.338,21.357,7.408,31.602,12.182l-11.299,33.721L290.4,294.992
		c26.977,8.976,42.029,37.675,34.074,64.971l121.379,34.869L482.311,405.249z"/>
	<path style="fill:#90BAE1;" d="M445.853,394.832l36.458,10.417c-7.922,11.181-16.75,21.692-26.394,31.426l-28.866-8.21
		l-127.823-36.723c-7.945-8.364-44.755-85.743-44.755-95.779l86.069-257.501l8.739-26.041c10.799,3.338,21.357,7.408,31.602,12.182
		l-11.299,33.721c60.517,29.171,104.43,84.343,119.28,149.862S487.879,342.42,445.853,394.832z"/>
	<g>
		<path style="fill:#95A5A5;" d="M482.311,405.249c-7.922,11.181-16.75,21.692-26.394,31.426l-28.866-8.21l-127.823-36.723
			c12.284-6.841,21.361-18.266,25.247-31.779l121.379,34.869L482.311,405.249z"/>
		<path style="fill:#95A5A5;" d="M380.882,24.603l-11.299,33.721L290.4,294.992c-1.933-0.664-3.909-1.195-5.914-1.589
			c-10.04-2.082-20.47-1.193-30.013,2.56l86.069-257.501l8.739-26.041C360.079,15.759,370.638,19.829,380.882,24.603z"/>
	</g>
	<path style="fill:#A5A5A4;" d="M70.593,460.068h370.759c9.751,0,17.655,7.904,17.655,17.655v17.655
		c0,9.751-7.905,17.655-17.655,17.655H70.593c-9.751,0-17.655-7.905-17.655-17.655v-17.655
		C52.938,467.973,60.842,460.068,70.593,460.068z"/>
	<g>
		
			<ellipse transform="matrix(-0.4407 -0.8976 0.8976 -0.4407 433.5112 607.6094)" style="fill:#ECF0F1;" cx="406.037" cy="168.758" rx="35.31" ry="26.483"/>
		
			<ellipse transform="matrix(-0.2531 -0.9674 0.9674 -0.2531 300.855 755.2482)" style="fill:#ECF0F1;" cx="441.961" cy="261.491" rx="22.069" ry="17.655"/>
	</g>
	<path style="fill:#7F8C8D;" d="M324.474,359.963c-6.343,22.122-26.262,37.603-49.265,38.288
		c-23.003,0.685-43.809-13.582-51.458-35.287h-29.572c-9.721-0.071-17.584-7.934-17.655-17.655
		c0.028-9.739,7.916-17.627,17.655-17.655h29.572c8.871-24.964,34.781-39.576,60.734-34.251c2.005,0.394,3.981,0.925,5.914,1.589
		C317.377,303.968,332.428,332.668,324.474,359.963L324.474,359.963z"/>
	<circle style="fill:#BDC3C7;" cx="273.627" cy="345.31" r="17.655"/>
</g>
<g>
</g>
<g>
</g>
<g>
</g>
<g>
</g>
<g>
</g>
<g>
</g>
<g>
</g>
<g>
</g>
<g>
</g>
<g>
</g>
<g>
</g>
<g>
</g>
<g>
</g>
<g>
</g>
<g>
</g>
</svg>
